<?xml version="1.0" encoding="utf-8"?>
<!-- Generator: Adobe Illustrator 25.2.0, SVG Export Plug-In . SVG Version: 6.00 Build 0)  -->
<svg version="1.1" xmlns="http://www.w3.org/2000/svg" xmlns:xlink="http://www.w3.org/1999/xlink" x="0px" y="0px"
	 viewBox="0 0 40 34" style="enable-background:new 0 0 40 34;" xml:space="preserve">
<style type="text/css">
	.st0{fill:#DBD749;}
	.st1{fill:#272B30;}
	.st2{fill:#F1F1F1;}
	.st3{fill:#E6E6E6;}
	.st4{fill:#F27BAA;}
	.st5{fill:#FFFFFF;}
</style>
<g id="Layer_1">
	<path class="st0" d="M34.5,21.7H8.2c-0.3,0-0.6-0.3-0.6-0.6c0-0.3,0.3-0.6,0.6-0.6h26.3c0.3,0,0.6,0.3,0.6,0.6
		C35.1,21.4,34.9,21.7,34.5,21.7z"/>
	<path class="st0" d="M34.5,23.9H8.2c-0.3,0-0.6-0.3-0.6-0.6c0-0.3,0.3-0.6,0.6-0.6h26.3c0.3,0,0.6,0.3,0.6,0.6
		C35.1,23.6,34.9,23.9,34.5,23.9z"/>
	<path class="st0" d="M30.2,23.2v3.9l1.7-1l1.7,1v-3.9H30.2z"/>
	<path class="st1" d="M35.7,10.9h-4.4v2.4h4.4V10.9z"/>
	<path class="st2" d="M38.1,13.9C38.1,13.9,38,13.9,38.1,13.9c-0.6-0.5-1-1-1.3-1.6c0,0,0,0,0,0h0c-0.4-0.7-0.6-1.4-0.7-2.2
		c0,0,0-0.1,0-0.1c0,0,0,0,0,0c0-0.3-0.2-0.5-0.3-0.7c0,0,0,0,0-0.1c-1.4-1.6-3.2-2.7-5.3-3.2c0-0.1,0-0.2,0-0.3
		c0-1.2,0.3-2.2,0.8-3.2c0-0.1,0-0.1,0-0.2C31.2,2.2,31,2,30.8,2c0,0,0,0,0,0c0,0,0,0-0.1,0c-2.6,0.4-5,1.6-6.9,3.3
		C23,6,22.3,6.9,21.7,7.7c-0.3,0.4-0.5,0.8-0.7,1.2c-0.1-0.1-0.3-0.1-0.4-0.2c-0.4-0.2-0.9-0.4-1.3-0.6c-1.4-0.5-2.8-0.8-4.3-0.8
		c-0.4,0-0.8,0-1.2,0.1c-1.5,0.1-2.9,0.5-4.2,1.1c-4.2,1.9-7.1,6-7.5,10.7c0,0.3,0,0.7,0,1v3.2c0,0.6,0.1,1.1,0.2,1.6
		c0.4,1.4,1.4,2.5,2.6,3.2C5.6,28.8,6.5,29,7.4,29h8.2c0,0,0.1,0,0.1,0c0,0,0.1,0,0.1,0c0,0,0,0,0,0c0,0,0,0,0.1,0
		c0.5,0.1,1,0.3,1.3,0.7c0,0.1,0.1,0.1,0.1,0.2c0.2,0.2,0.3,0.5,0.3,0.8c0,0,0,0,0,0c0,0.1,0,0.1,0,0.2c0,0,0,0,0,0c0,0,0,0,0,0v0
		c0,0.2,0.1,0.5,0.1,0.7c0.2,0.4,0.4,0.7,0.8,0.9c0.3,0.2,0.6,0.3,1,0.3c0.9,0,1.7-0.7,1.9-1.6c0-0.1,0-0.1,0-0.2c0,0,0-0.1,0-0.1
		c0,0,0,0,0-0.1v0c0-0.7-0.1-1.3-0.3-1.9c-0.3-0.9-0.8-1.6-1.4-2.3c-0.7-0.7-1.5-1.2-2.5-1.4c-0.5-0.2-1.1-0.2-1.6-0.2H8.9
		c0,0,0,0,0,0c0,0,0,0,0,0c-1.5,0-2.8-1.2-2.9-2.7c0-0.1,0-0.1,0-0.2c0-1.6,1.3-2.9,2.9-2.9h26.1c0.7,0,1.2-0.4,1.4-1c0,0,0,0,0-0.1
		c0.1-0.3,0.3-0.5,0.5-0.7c0,0,0,0,0,0c0,0,0,0,0.1,0c0,0,0.1,0,0.1-0.1c0.6-0.5,1.1-1.2,1.2-2.1c0-0.1,0-0.2,0-0.3
		C38.2,14.6,38.2,14.2,38.1,13.9z M34.6,12.8c-0.1,0-0.1,0-0.2,0c-0.3-0.1-0.5-0.2-0.9-0.3c-0.1,0-0.1,0-0.2,0c-0.1,0-0.3,0-0.4,0
		c-0.2,0-0.4,0.1-0.6,0.2c0,0,0,0,0,0c0,0,0,0,0,0c0,0-0.1,0-0.2,0c-0.2,0-0.4-0.2-0.4-0.4c0-0.1,0.1-0.2,0.2-0.3c0,0,0,0,0,0
		c0.2-0.1,0.5-0.2,0.8-0.3c0.2,0,0.4-0.1,0.6-0.1c0.4,0,0.9,0.1,1.2,0.3c0,0,0.1,0,0.1,0.1c0,0,0,0,0,0c0.1,0.1,0.2,0.2,0.2,0.3
		C35,12.6,34.8,12.8,34.6,12.8z"/>
	<path class="st3" d="M38.1,13.9C38.1,13.9,38,13.9,38.1,13.9c-0.6-0.5-1-1-1.3-1.6c0,0,0,0,0,0h0c-0.4-0.7-0.6-1.4-0.7-2.2
		c0,0,0-0.1,0-0.1c0,0,0,0,0,0c0-0.3-0.2-0.5-0.3-0.7c0,0,0,0,0-0.1c-1.4-1.6-3.2-2.7-5.3-3.2c0-0.1,0-0.2,0-0.3
		c0-1.2,0.3-2.2,0.8-3.2c0-0.1,0-0.1,0-0.2C31.2,2.2,31,2,30.8,2c0,0,0,0,0,0c0,0,0,0-0.1,0c-2.6,0.4-5,1.6-6.9,3.3
		C23,6,22.3,6.9,21.7,7.7c-0.3,0.4-0.5,0.8-0.7,1.2c-0.1-0.1-0.3-0.1-0.4-0.2c-0.4-0.2-0.9-0.4-1.3-0.6c-1.4-0.5-2.8-0.8-4.3-0.8
		c-0.4,0-0.8,0-1.2,0.1c-1.5,0.1-2.9,0.5-4.2,1.1c-4.2,1.9-7.1,6-7.5,10.7c0,0.3,0,0.7,0,1v3.2c0,0.6,0.1,1.1,0.2,1.6
		c0.4,1.4,1.4,2.5,2.6,3.2C5.6,28.8,6.5,29,7.4,29h8.2c0,0,0.1,0,0.1,0c0,0,0.1,0,0.1,0c0,0,0,0,0,0c0,0,0,0,0.1,0
		c0.5,0.1,1,0.3,1.3,0.7c0,0.1,0.1,0.1,0.1,0.2c0.2,0.2,0.3,0.5,0.3,0.8c0,0,0,0,0,0c0,0.1,0,0.1,0,0.2c0,0,0,0,0,0c0,0,0,0,0,0v0
		c0,0.2,0.1,0.5,0.1,0.7c0.2,0.4,0.4,0.7,0.8,0.9c0.3,0.2,0.6,0.3,1,0.3c0.9,0,1.7-0.7,1.9-1.6c0-0.1,0-0.1,0-0.2c0,0,0-0.1,0-0.1
		c0,0,0,0,0-0.1v0c0-0.7-0.1-1.3-0.3-1.9c-0.3-0.9-0.8-1.6-1.4-2.3c-0.7-0.7-1.5-1.2-2.5-1.4c-0.5-0.2-1.1-0.2-1.6-0.2H8.9
		c0,0,0,0,0,0c0,0,0,0,0,0c-1.5,0-2.8-1.2-2.9-2.7c0-0.1,0-0.1,0-0.2c0-1.6,1.3-2.9,2.9-2.9h26.1c0.7,0,1.2-0.4,1.4-1c0,0,0,0,0-0.1
		c0.1-0.3,0.3-0.5,0.5-0.7c0,0,0,0,0,0c0,0,0,0,0.1,0c0,0,0.1,0,0.1-0.1c0.6-0.5,1.1-1.2,1.2-2.1c0-0.1,0-0.2,0-0.3
		C38.3,14.6,38.2,14.2,38.1,13.9z M34.6,12.8c-0.1,0-0.1,0-0.2,0c-0.3-0.1-0.5-0.2-0.9-0.3c-0.1,0-0.1,0-0.2,0c-0.1,0-0.3,0-0.4,0
		c-0.2,0-0.4,0.1-0.6,0.2c0,0,0,0,0,0c0,0,0,0,0,0c0,0-0.1,0-0.2,0c-0.2,0-0.4-0.2-0.4-0.4c0-0.1,0.1-0.2,0.2-0.3c0,0,0,0,0,0
		c0.2-0.1,0.5-0.2,0.8-0.3c0.2,0,0.4-0.1,0.6-0.1c0.4,0,0.9,0.1,1.2,0.3c0,0,0.1,0,0.1,0.1c0,0,0,0,0,0c0.1,0.1,0.2,0.2,0.2,0.3
		C35,12.6,34.8,12.8,34.6,12.8z"/>
	<path class="st0" d="M21,8.8c0.7,3.4,3.6,5.9,7.1,5.9c2.1,0,3.9-0.9,5.3-2.3c0,0,0,0,0,0c-0.1,0-0.3,0-0.4,0
		c-0.2,0-0.4,0.1-0.6,0.2c0,0,0,0,0,0c0,0,0,0,0,0c0,0-0.1,0-0.2,0c-0.2,0-0.4-0.2-0.4-0.4c0-0.1,0.1-0.2,0.2-0.3c0,0,0,0,0,0
		c0.2-0.1,0.5-0.2,0.8-0.3c0.2,0,0.4-0.1,0.6-0.1c0.2,0,0.4,0,0.6,0.1c0.6-0.8,1.1-1.8,1.3-2.9c-1.3-1.4-3-2.4-5-2.8
		c0-0.1,0-0.2,0-0.3c0-1.2,0.3-2.2,0.8-3.2c0-0.1,0-0.1,0-0.2C31.2,2.2,31,2,30.8,2c0,0,0,0,0,0c0,0,0,0-0.1,0
		c-2.6,0.4-5,1.6-6.9,3.3C23,6,22.3,6.9,21.7,7.7C21.4,8.1,21.2,8.5,21,8.8z"/>
	<path class="st1" d="M36.1,15.8c-0.3-0.1-0.6-0.2-1-0.3c-0.3-0.1-0.6-0.2-1-0.2c-0.6-0.1-1.3-0.2-1.9-0.2c-0.7-0.1-1.3,0-2,0
		l-0.5,0.1c-0.2,0-0.3,0.1-0.5,0.1c-0.3,0-0.6,0.2-1,0.2c0.6-0.3,1.2-0.5,1.9-0.6c0.7-0.1,1.3-0.1,2-0.1c0.7,0,1.3,0.1,2,0.3
		C34.9,15.3,35.5,15.5,36.1,15.8z"/>
	<path class="st1" d="M35.9,16.4c-0.3,0-0.7-0.1-1-0.1c-0.3,0-0.7-0.1-1-0.1c-0.7,0-1.3,0-2,0c-0.7,0-1.3,0.2-1.9,0.3l-0.5,0.1
		c-0.2,0-0.3,0.1-0.5,0.2c-0.3,0.1-0.6,0.3-0.9,0.4c0.6-0.4,1.2-0.7,1.8-0.8c0.6-0.2,1.3-0.3,2-0.4c0.7-0.1,1.3-0.1,2,0
		C34.6,16.1,35.2,16.2,35.9,16.4z"/>
	<path class="st1" d="M35.8,17.1c-0.3,0-0.7,0.1-1,0.1c-0.3,0-0.7,0.1-1,0.1c-0.6,0.1-1.3,0.3-1.9,0.5c-0.6,0.2-1.2,0.4-1.8,0.7
		l-0.4,0.2c-0.1,0.1-0.3,0.2-0.4,0.3c-0.3,0.2-0.5,0.4-0.8,0.6c0.5-0.5,1-0.9,1.6-1.2c0.6-0.3,1.2-0.6,1.8-0.8
		c0.6-0.2,1.3-0.3,2-0.4C34.5,17.1,35.2,17,35.8,17.1z"/>
	<path class="st4" d="M38,13.9c-0.1-0.1-0.2-0.2-0.3-0.3c-0.3,0.2-0.5,0.5-0.5,0.8c0,0.5,0.4,1,1,1c0,0,0,0,0,0c0,0,0-0.1,0-0.1
		c0-0.1,0-0.2,0-0.3C38.2,14.6,38.2,14.2,38,13.9C38.1,13.9,38,13.9,38,13.9z"/>
	<path class="st5" d="M30,6.5c0,0,0,0.1,0,0.1c-1.2,0.5-2.2,1.2-3.2,2c0-0.3-0.1-0.5-0.1-0.8c0-2.7,1.9-4.9,4.4-5.4
		C30.4,3.6,30,5,30,6.5z"/>
	<path class="st0" d="M19.8,26.8c-0.1-0.1-0.3-0.2-0.4-0.4c-1.5,0.3-2.7,1.3-3.2,2.7c0.4,0.1,0.8,0.3,1.1,0.6c0,0.1,0.1,0.1,0.1,0.2
		c0.2,0.2,0.3,0.5,0.3,0.8c0,0,0,0,0,0c0,0.1,0,0.1,0,0.2c0,0,0,0,0,0c0,0,0,0,0,0v0c0,0.2,0.1,0.5,0.1,0.7c0.2,0.4,0.4,0.7,0.8,0.9
		c0.3,0.2,0.6,0.3,1,0.3c0.9,0,1.7-0.7,1.9-1.6c0-0.1,0-0.1,0-0.2c0,0,0-0.1,0-0.1c0,0,0,0,0-0.1v0c0-0.7-0.1-1.3-0.3-1.9
		C20.9,28.2,20.4,27.4,19.8,26.8z"/>
</g>
<g id="Layer_2">
	<polygon class="st0" points="15.9,13.3 15.9,15.7 11.9,15.7 11.9,11.8 14.4,11.8 15.8,10.3 10.4,10.3 10.4,17.2 17.3,17.2 
		17.3,11.8 	"/>
	<polygon class="st0" points="12.7,14.9 13.7,14.6 18.5,9.8 17.8,9.1 12.9,13.8 	"/>
	<polygon class="st3" points="13.2,13.5 14,14.4 14.1,14.3 13.3,13.4 	"/>
</g>
</svg>
