<?xml version="1.0" encoding="utf-8"?>
<!-- Generator: Adobe Illustrator 25.2.0, SVG Export Plug-In . SVG Version: 6.00 Build 0)  -->
<svg version="1.1" id="Layer_1" xmlns="http://www.w3.org/2000/svg" xmlns:xlink="http://www.w3.org/1999/xlink" x="0px" y="0px"
	 viewBox="0 0 40 34" style="enable-background:new 0 0 40 34;" xml:space="preserve">
<style type="text/css">
	.st0{fill:#57AD97;}
	.st1{fill:#272B30;}
	.st2{fill:#F1F1F1;}
	.st3{fill:#E6E6E6;}
	.st4{fill:#F27BAA;}
	.st5{fill:#FFFFFF;}
</style>
<g id="Layer_1_1_">
	<path class="st0" d="M34.5,21.7H8.2c-0.3,0-0.6-0.3-0.6-0.6c0-0.3,0.3-0.6,0.6-0.6h26.3c0.3,0,0.6,0.3,0.6,0.6
		C35.1,21.4,34.9,21.7,34.5,21.7z"/>
	<path class="st0" d="M34.5,23.9H8.2c-0.3,0-0.6-0.3-0.6-0.6c0-0.3,0.3-0.6,0.6-0.6h26.3c0.3,0,0.6,0.3,0.6,0.6S34.9,23.9,34.5,23.9
		z"/>
	<path class="st0" d="M30.2,23.2v3.9l1.7-1l1.7,1v-3.9H30.2z"/>
	<path class="st1" d="M35.7,10.9h-4.4v2.4h4.4V10.9z"/>
	<path class="st2" d="M38.1,13.9C38.1,13.9,38,13.9,38.1,13.9c-0.6-0.5-1-1-1.3-1.6l0,0l0,0c-0.4-0.7-0.6-1.4-0.7-2.2V10l0,0
		c0-0.3-0.2-0.5-0.3-0.7c0,0,0,0,0-0.1c-1.4-1.6-3.2-2.7-5.3-3.2c0-0.1,0-0.2,0-0.3c0-1.2,0.3-2.2,0.8-3.2c0-0.1,0-0.1,0-0.2
		C31.2,2.2,31,2,30.8,2l0,0c0,0,0,0-0.1,0c-2.6,0.4-5,1.6-6.9,3.3C23,6,22.3,6.9,21.7,7.7c-0.3,0.4-0.5,0.8-0.7,1.2
		c-0.1-0.1-0.3-0.1-0.4-0.2c-0.4-0.2-0.9-0.4-1.3-0.6c-1.4-0.5-2.8-0.8-4.3-0.8c-0.4,0-0.8,0-1.2,0.1c-1.5,0.1-2.9,0.5-4.2,1.1
		c-4.2,1.9-7.1,6-7.5,10.7c0,0.3,0,0.7,0,1v3.2c0,0.6,0.1,1.1,0.2,1.6c0.4,1.4,1.4,2.5,2.6,3.2C5.6,28.8,6.5,29,7.4,29h8.2h0.1h0.1
		l0,0c0,0,0,0,0.1,0c0.5,0.1,1,0.3,1.3,0.7c0.1,0.1,0.1,0.1,0.1,0.2c0.2,0.2,0.3,0.5,0.3,0.8l0,0c0,0.1,0,0.1,0,0.2l0,0l0,0l0,0
		c0,0.2,0.1,0.5,0.1,0.7c0.2,0.4,0.4,0.7,0.8,0.9c0.3,0.2,0.6,0.3,1,0.3c0.9,0,1.7-0.7,1.9-1.6c0-0.1,0-0.1,0-0.2v-0.1
		c0,0,0,0,0-0.1l0,0c0-0.7-0.1-1.3-0.3-1.9c-0.3-0.9-0.8-1.6-1.4-2.3c-0.7-0.7-1.5-1.2-2.5-1.4C16.7,25,16.1,25,15.6,25H8.9l0,0l0,0
		c-1.5,0-2.8-1.2-2.9-2.7c0-0.1,0-0.1,0-0.2c0-1.6,1.3-2.9,2.9-2.9H35c0.7,0,1.2-0.4,1.4-1c0,0,0,0,0-0.1c0.1-0.3,0.3-0.5,0.5-0.7
		l0,0c0,0,0,0,0.1,0c0,0,0.1,0,0.1-0.1c0.6-0.5,1.1-1.2,1.2-2.1c0-0.1,0-0.2,0-0.3C38.2,14.6,38.2,14.2,38.1,13.9z M34.6,12.8
		c-0.1,0-0.1,0-0.2,0c-0.3-0.1-0.5-0.2-0.9-0.3c-0.1,0-0.1,0-0.2,0c-0.1,0-0.3,0-0.4,0c-0.2,0-0.4,0.1-0.6,0.2l0,0l0,0
		c0,0-0.1,0-0.2,0c-0.2,0-0.4-0.2-0.4-0.4c0-0.1,0.1-0.2,0.2-0.3l0,0c0.2-0.1,0.5-0.2,0.8-0.3c0.2,0,0.4-0.1,0.6-0.1
		c0.4,0,0.9,0.1,1.2,0.3c0,0,0.1,0,0.1,0.1l0,0c0.1,0.1,0.2,0.2,0.2,0.3C35,12.6,34.8,12.8,34.6,12.8z"/>
	<path class="st3" d="M38.1,13.9C38.1,13.9,38,13.9,38.1,13.9c-0.6-0.5-1-1-1.3-1.6l0,0l0,0c-0.4-0.7-0.6-1.4-0.7-2.2V10l0,0
		c0-0.3-0.2-0.5-0.3-0.7c0,0,0,0,0-0.1c-1.4-1.6-3.2-2.7-5.3-3.2c0-0.1,0-0.2,0-0.3c0-1.2,0.3-2.2,0.8-3.2c0-0.1,0-0.1,0-0.2
		C31.2,2.2,31,2,30.8,2l0,0c0,0,0,0-0.1,0c-2.6,0.4-5,1.6-6.9,3.3C23,6,22.3,6.9,21.7,7.7c-0.3,0.4-0.5,0.8-0.7,1.2
		c-0.1-0.1-0.3-0.1-0.4-0.2c-0.4-0.2-0.9-0.4-1.3-0.6c-1.4-0.5-2.8-0.8-4.3-0.8c-0.4,0-0.8,0-1.2,0.1c-1.5,0.1-2.9,0.5-4.2,1.1
		c-4.2,1.9-7.1,6-7.5,10.7c0,0.3,0,0.7,0,1v3.2c0,0.6,0.1,1.1,0.2,1.6c0.4,1.4,1.4,2.5,2.6,3.2C5.6,28.8,6.5,29,7.4,29h8.2h0.1h0.1
		l0,0c0,0,0,0,0.1,0c0.5,0.1,1,0.3,1.3,0.7c0.1,0.1,0.1,0.1,0.1,0.2c0.2,0.2,0.3,0.5,0.3,0.8l0,0c0,0.1,0,0.1,0,0.2l0,0l0,0l0,0
		c0,0.2,0.1,0.5,0.1,0.7c0.2,0.4,0.4,0.7,0.8,0.9c0.3,0.2,0.6,0.3,1,0.3c0.9,0,1.7-0.7,1.9-1.6c0-0.1,0-0.1,0-0.2v-0.1
		c0,0,0,0,0-0.1l0,0c0-0.7-0.1-1.3-0.3-1.9c-0.3-0.9-0.8-1.6-1.4-2.3c-0.7-0.7-1.5-1.2-2.5-1.4C16.7,25,16.1,25,15.6,25H8.9l0,0l0,0
		c-1.5,0-2.8-1.2-2.9-2.7c0-0.1,0-0.1,0-0.2c0-1.6,1.3-2.9,2.9-2.9H35c0.7,0,1.2-0.4,1.4-1c0,0,0,0,0-0.1c0.1-0.3,0.3-0.5,0.5-0.7
		l0,0c0,0,0,0,0.1,0c0,0,0.1,0,0.1-0.1c0.6-0.5,1.1-1.2,1.2-2.1c0-0.1,0-0.2,0-0.3C38.2,14.6,38.2,14.2,38.1,13.9z M34.6,12.8
		c-0.1,0-0.1,0-0.2,0c-0.3-0.1-0.5-0.2-0.9-0.3c-0.1,0-0.1,0-0.2,0c-0.1,0-0.3,0-0.4,0c-0.2,0-0.4,0.1-0.6,0.2l0,0l0,0
		c0,0-0.1,0-0.2,0c-0.2,0-0.4-0.2-0.4-0.4c0-0.1,0.1-0.2,0.2-0.3l0,0c0.2-0.1,0.5-0.2,0.8-0.3c0.2,0,0.4-0.1,0.6-0.1
		c0.4,0,0.9,0.1,1.2,0.3c0,0,0.1,0,0.1,0.1l0,0c0.1,0.1,0.2,0.2,0.2,0.3C35,12.6,34.8,12.8,34.6,12.8z"/>
	<path class="st0" d="M32.7,12.5c0,0-0.3,0.1-0.4,0.2c-0.4,0.1-0.5-0.2-0.5-0.4c0-0.1,0.1-0.2,0.2-0.3l0.2-0.1
		c0.2-0.1,0.3-0.1,0.6-0.2c0.2,0,0.4-0.1,0.7-0.1c0.3,0,0.2,0,0.5,0.1c0.6-0.8,1.2-1.9,1.4-3c-1.3-1.4-2.8-2.4-4.8-2.8
		c0-0.1,0-0.2,0-0.3c0-1.2,0.3-2.1,0.8-3.1c0-0.1,0-0.1,0-0.2C31.4,2.3,31,2,30.8,2l0,0c0,0,0,0-0.1,0c-2.6,0.4-5,1.6-6.9,3.3
		C23,6,22.3,6.9,21.7,7.7c-0.3,0.4-0.5,0.8-0.7,1.1c0.7,3.4,3.6,5.9,7.1,5.9c2.1,0,3.8-0.8,5.2-2.2l-0.1,0c-0.1,0-0.2,0-0.3,0"/>
	<path class="st1" d="M36.1,15.8c-0.3-0.1-0.6-0.2-1-0.3c-0.3-0.1-0.6-0.2-1-0.2c-0.6-0.1-1.3-0.2-1.9-0.2c-0.7-0.1-1.3,0-2,0
		l-0.5,0.1c-0.2,0-0.3,0.1-0.5,0.1c-0.3,0-0.6,0.2-1,0.2c0.6-0.3,1.2-0.5,1.9-0.6c0.7-0.1,1.3-0.1,2-0.1c0.7,0,1.3,0.1,2,0.3
		C34.9,15.3,35.5,15.5,36.1,15.8z"/>
	<path class="st1" d="M35.9,16.4c-0.3,0-0.7-0.1-1-0.1s-0.7-0.1-1-0.1c-0.7,0-1.3,0-2,0s-1.3,0.2-1.9,0.3l-0.5,0.1
		c-0.2,0-0.3,0.1-0.5,0.2c-0.3,0.1-0.6,0.3-0.9,0.4c0.6-0.4,1.2-0.7,1.8-0.8c0.6-0.2,1.3-0.3,2-0.4s1.3-0.1,2,0
		C34.6,16.1,35.2,16.2,35.9,16.4z"/>
	<path class="st1" d="M35.8,17.1c-0.3,0-0.7,0.1-1,0.1s-0.7,0.1-1,0.1c-0.6,0.1-1.3,0.3-1.9,0.5s-1.2,0.4-1.8,0.7l-0.4,0.2
		c-0.1,0.1-0.3,0.2-0.4,0.3c-0.3,0.2-0.5,0.4-0.8,0.6c0.5-0.5,1-0.9,1.6-1.2c0.6-0.3,1.2-0.6,1.8-0.8c0.6-0.2,1.3-0.3,2-0.4
		C34.5,17.1,35.2,17,35.8,17.1z"/>
	<path class="st4" d="M38,13.9c-0.1-0.1-0.2-0.2-0.3-0.3c-0.3,0.2-0.5,0.5-0.5,0.8c0,0.5,0.4,1,1,1l0,0v-0.1c0-0.1,0-0.2,0-0.3
		C38.2,14.6,38.2,14.2,38,13.9C38.1,13.9,38,13.9,38,13.9z"/>
	<path class="st5" d="M30,6.5L30,6.5c-1.2,0.6-2.2,1.3-3.2,2.1c0-0.3-0.1-0.5-0.1-0.8c0-2.7,1.9-4.9,4.4-5.4C30.4,3.6,30,5,30,6.5z"
		/>
	<path class="st0" d="M17.7,31.6c0.2,0.4,0.4,0.7,0.8,0.9c0.3,0.2,0.6,0.3,1.1,0.3c0.9,0,1.7-0.7,1.9-1.6c0-0.1,0-0.1,0-0.2v-0.1
		c0,0,0,0,0-0.1l0,0c0-0.7-0.1-1.3-0.3-1.9c-0.3-0.7-0.8-1.5-1.4-2.1c-0.1-0.1-0.1-0.2-0.4-0.4c-1.5,0.3-2.7,1.4-3.2,2.8
		c0.4,0.1,0.7,0.3,1,0.6c0.1,0.1,0.1,0.1,0.1,0.2c0.2,0.2,0.3,0.5,0.3,0.8v0.1c0,0.1,0,0.1,0,0.2l0,0.1"/>
</g>
<g id="Layer_2_1_">
	<polygon class="st0" points="16.8,15 18.7,15 18.7,14.5 19.4,14.5 17.8,12.6 16.1,14.5 16.8,14.5 	"/>
	<polygon class="st0" points="9.7,17.4 18.8,17.4 18.8,15.5 16.9,15.5 16.9,16 11.7,16 11.7,15.5 9.7,15.5 	"/>
</g>
<g id="Layer_2_2_">
	<polygon class="st0" points="11.6,12.7 9.7,12.7 9.7,13.3 9,13.3 10.6,15.2 12.3,13.3 11.6,13.3 	"/>
	<polygon class="st0" points="18.8,10.3 9.7,10.3 9.7,12.2 11.6,12.2 11.6,11.8 16.8,11.8 16.8,12.2 18.8,12.2 	"/>
</g>
</svg>
